<?xml version="1.0" standalone="no"?>
<!DOCTYPE svg PUBLIC "-//W3C//DTD SVG 20010904//EN"
 "http://www.w3.org/TR/2001/REC-SVG-20010904/DTD/svg10.dtd">
<svg version="1.0" xmlns="http://www.w3.org/2000/svg"
 width="1140.000000pt" height="1080.000000pt" viewBox="0 0 1140.000000 1080.000000"
 preserveAspectRatio="xMidYMid meet">

<g transform="translate(0.000000,1080.000000) scale(0.100000,-0.100000)"
fill="#000000" stroke="none">
<path d="M5255 10364 c-547 -41 -934 -117 -1376 -270 -259 -89 -610 -249 -844
-383 -684 -394 -1244 -919 -1683 -1578 -408 -612 -683 -1345 -781 -2083 -34
-256 -41 -373 -41 -656 0 -257 19 -536 50 -714 5 -30 14 -86 21 -125 6 -38 29
-148 50 -244 172 -769 536 -1501 1053 -2118 118 -139 441 -470 499 -510 22
-15 66 -53 97 -83 64 -63 336 -266 487 -364 341 -220 811 -442 1197 -565 514
-164 988 -236 1546 -234 310 0 385 6 724 52 903 125 1799 523 2471 1099 128
110 160 127 224 117 91 -14 178 -75 372 -262 42 -40 83 -73 91 -73 23 0 320
327 316 347 -4 21 -354 324 -411 355 -22 13 -42 28 -44 33 -2 6 31 51 72 100
636 764 1033 1694 1136 2660 109 1020 -98 2043 -593 2939 -78 140 -216 358
-288 454 -37 48 -86 116 -110 152 -95 141 -454 532 -610 665 -19 16 -66 57
-105 91 -196 170 -463 362 -704 506 -168 100 -522 275 -703 346 -285 113 -603
206 -898 262 -305 58 -536 80 -880 84 -157 2 -307 2 -335 0z m2180 -689 c178
-52 372 -164 412 -238 101 -187 110 -236 119 -659 9 -436 -9 -626 -90 -932
-41 -155 -66 -189 -155 -206 -86 -16 -123 -12 -222 25 -51 19 -122 42 -158 50
-132 32 -488 97 -581 105 -140 14 -488 39 -705 52 -245 14 -971 14 -1005 0
-20 -8 1 -11 93 -11 64 -1 117 -3 117 -6 0 -3 -13 -24 -30 -47 -16 -22 -30
-45 -30 -50 0 -6 -9 -23 -20 -39 -12 -15 -24 -51 -27 -78 -5 -41 -2 -56 17
-86 66 -106 367 -163 875 -165 251 -1 336 10 430 54 116 55 147 109 153 259
l4 107 82 -1 c44 0 114 -8 155 -17 86 -20 81 -10 84 -167 2 -102 0 -114 -26
-166 -47 -96 -160 -194 -271 -234 -137 -50 -185 -54 -666 -64 -556 -11 -758 1
-951 57 -166 49 -239 131 -239 271 0 107 22 165 102 266 l71 90 -109 6 c-103
5 -154 18 -154 39 0 4 8 28 19 52 36 85 52 213 58 458 6 233 0 335 -33 595
-29 231 -82 420 -130 469 -29 28 -21 37 46 61 80 28 168 30 322 5 l143 -23
715 16 c851 20 919 27 1195 119 75 25 150 43 200 48 44 4 85 8 91 9 7 0 51
-10 99 -24z m-2835 -285 c70 -70 140 -458 140 -776 l0 -150 -62 -30 c-88 -41
-167 -110 -202 -175 l-29 -54 74 76 c41 42 94 87 119 99 25 12 57 31 73 42
l27 19 0 -63 c0 -111 -20 -275 -41 -345 -21 -67 -72 -133 -103 -133 -36 0
-138 -139 -227 -306 -58 -112 -138 -409 -170 -639 -47 -331 -12 -855 78 -1172
l26 -93 182 0 183 0 7 -50 c8 -61 21 -41 -165 -257 -148 -170 -290 -337 -884
-1033 -181 -212 -337 -394 -348 -406 -18 -20 -18 -39 -8 -550 6 -291 13 -553
16 -581 l5 -53 83 0 c77 0 84 -2 107 -27 44 -49 49 -74 49 -248 0 -128 -4
-174 -16 -205 l-16 -40 -332 -1 c-182 -1 -353 -3 -381 -4 -69 -4 -81 1 -99 39
-13 27 -14 64 -9 240 l6 207 34 29 c29 26 41 30 94 30 l61 0 -6 478 c-4 262
-9 519 -12 571 l-6 93 -207 232 c-399 448 -858 962 -1048 1175 l-193 216 0 51
0 51 328 7 c180 3 545 8 812 11 267 3 589 8 716 11 l231 6 22 102 c12 55 46
193 75 306 30 113 61 241 70 285 54 271 89 437 101 485 8 31 24 108 35 170 30
164 96 420 126 487 14 32 50 132 80 223 58 176 155 388 225 492 52 77 117 148
184 201 l50 39 0 257 c1 278 14 400 61 566 33 119 46 133 84 95z m1388 -2517
c-10 -32 -25 -71 -32 -88 -27 -58 -75 -223 -136 -460 -52 -204 -75 -289 -106
-398 -5 -15 -1 -17 23 -11 56 13 251 132 378 231 6 5 20 13 31 18 12 6 44 29
70 52 27 22 105 88 174 144 261 216 420 366 420 398 0 16 -61 30 -168 37 -56
4 -104 10 -107 14 -2 3 3 30 11 58 l16 52 71 -8 c104 -10 569 -7 657 5 80 11
96 7 85 -25 -4 -15 -23 -26 -63 -37 -87 -26 -209 -84 -284 -134 -36 -25 -162
-127 -280 -227 -117 -99 -247 -207 -288 -239 -41 -32 -82 -64 -90 -72 -8 -7
-35 -29 -60 -48 -25 -19 -52 -41 -60 -48 -8 -6 -72 -50 -141 -98 l-127 -85 54
-80 c104 -151 197 -383 354 -884 77 -244 185 -504 258 -620 37 -59 163 -186
224 -225 51 -34 149 -65 203 -65 105 0 161 48 231 197 43 91 59 115 85 129 50
25 106 14 148 -32 31 -34 33 -40 28 -86 -8 -66 -43 -123 -116 -191 -136 -126
-319 -172 -523 -133 -101 19 -182 54 -275 117 -95 65 -152 121 -223 219 -30
41 -60 80 -66 87 -14 15 -116 214 -132 258 -28 77 -84 222 -92 240 -6 11 -30
79 -55 150 -88 258 -152 433 -184 500 -34 74 -197 325 -211 325 -4 0 -17 -35
-27 -77 -46 -182 -84 -328 -127 -483 -58 -207 -132 -493 -140 -541 l-7 -37 63
-22 c41 -14 98 -24 161 -27 73 -4 97 -9 93 -18 -2 -7 -10 -31 -17 -54 l-12
-41 -63 0 c-34 0 -122 7 -196 16 -93 11 -171 14 -258 10 -110 -5 -352 -34
-434 -52 l-29 -6 5 47 c7 54 10 58 85 76 31 7 88 29 127 48 116 58 148 118
266 501 27 88 52 177 56 198 3 20 23 98 44 172 94 336 148 535 240 895 22 88
54 209 70 269 16 61 28 112 25 114 -3 3 -112 -8 -225 -24 -139 -19 -307 -89
-426 -177 -95 -70 -153 -175 -141 -254 3 -18 24 -71 46 -118 26 -53 41 -99 41
-122 0 -71 -60 -133 -128 -133 -41 0 -115 52 -136 97 -24 50 -32 157 -16 235
19 102 123 280 201 348 140 121 331 214 486 235 277 37 325 41 534 43 l156 2
-19 -57z m2502 -1803 c0 -6 -30 -122 -66 -258 -37 -136 -77 -292 -91 -347 -13
-55 -35 -143 -48 -197 -14 -53 -40 -163 -60 -245 -19 -81 -55 -233 -80 -338
-51 -213 -75 -317 -80 -357 -2 -16 -9 -45 -14 -65 -15 -52 -14 -118 2 -131 14
-11 95 -28 183 -37 85 -9 91 -14 73 -62 -18 -45 3 -44 -274 -18 -217 19 -392
17 -585 -9 -58 -8 -107 -13 -108 -11 -2 2 2 20 10 41 16 44 35 54 171 83 158
34 196 57 240 147 35 69 140 424 164 554 2 14 28 117 57 230 72 274 118 493
120 559 2 93 -11 92 -277 -18 -55 -23 -103 -39 -107 -36 -5 3 -14 22 -21 42
-15 46 -23 40 183 137 234 111 431 232 509 312 24 25 41 34 66 34 18 0 33 -5
33 -10z m-5260 -2952 c0 -97 22 -213 51 -271 33 -65 106 -135 173 -166 65 -31
284 -91 581 -161 99 -23 194 -46 210 -51 187 -53 494 -119 690 -149 552 -83
815 -90 1140 -31 109 20 750 183 833 212 29 11 81 25 115 33 176 38 953 303
1206 411 98 41 264 87 406 112 75 12 157 17 325 17 217 0 227 -1 282 -25 60
-26 230 -163 370 -299 l78 -75 -98 -99 c-54 -54 -106 -112 -115 -128 -9 -16
-21 -28 -27 -26 -19 7 -360 290 -370 307 -5 11 -44 29 -95 46 -83 26 -89 27
-183 16 -94 -11 -161 -31 -387 -115 -55 -21 -140 -51 -190 -68 -49 -16 -103
-36 -120 -43 -16 -7 -124 -45 -240 -85 -115 -40 -253 -88 -305 -107 -52 -18
-102 -36 -110 -38 -8 -2 -114 -36 -235 -75 -552 -177 -503 -165 -1055 -276
l-235 -48 -305 0 c-269 -1 -320 2 -435 21 -71 12 -195 32 -275 44 -132 20
-524 96 -610 118 -19 5 -91 23 -160 40 -69 18 -145 39 -170 47 -25 8 -101 30
-170 50 -508 143 -580 173 -710 304 -120 120 -150 213 -150 467 l0 173 145 0
145 0 0 -82z"/>
<path d="M7210 9591 c-25 -4 -93 -26 -152 -48 -59 -23 -140 -47 -180 -53 -40
-7 -287 -17 -548 -24 -538 -13 -547 -23 -30 -32 302 -5 369 -3 541 14 108 11
205 24 215 30 36 19 252 55 292 48 177 -28 137 -165 -60 -206 -81 -16 -89 -35
-12 -27 80 9 143 31 188 69 37 30 66 80 66 112 0 25 -58 83 -100 100 -48 19
-157 27 -220 17z"/>
<path d="M4980 9485 c0 -5 9 -39 20 -74 40 -126 85 -385 95 -546 2 -38 7 -108
11 -155 7 -98 -9 -383 -32 -549 -8 -62 -13 -115 -11 -118 6 -5 43 193 57 302
20 159 30 388 20 475 -43 372 -53 434 -91 556 -17 56 -68 137 -69 109z"/>
<path d="M5395 9453 c-73 -8 -155 -36 -189 -65 -76 -62 -66 -111 29 -147 72
-27 86 -27 44 2 -72 49 -59 110 34 152 52 24 147 44 222 46 40 2 40 2 -10 9
-53 9 -81 9 -130 3z"/>
<path d="M7080 8971 c-63 -6 -61 -6 71 -18 175 -16 278 -37 356 -73 155 -72
81 -151 -191 -205 -72 -14 -132 -28 -135 -30 -6 -7 57 -6 194 4 89 7 138 16
190 36 39 14 76 27 83 29 8 1 27 22 43 46 44 66 27 100 -75 149 -68 32 -93 37
-263 51 -65 5 -138 11 -163 14 -25 2 -74 1 -110 -3z"/>
<path d="M5559 8941 c-138 -16 -151 -20 -215 -57 -108 -63 -139 -148 -72 -204
57 -48 199 -81 338 -78 41 1 59 3 40 5 -125 12 -207 26 -231 39 -39 20 -62 68
-54 110 15 84 116 144 282 168 55 9 111 20 124 25 37 15 -40 12 -212 -8z"/>
<path d="M6062 8954 c7 -6 470 -5 477 1 2 3 -105 5 -239 5 -134 0 -241 -3
-238 -6z"/>
<path d="M5973 8943 c15 -2 39 -2 55 0 15 2 2 4 -28 4 -30 0 -43 -2 -27 -4z"/>
<path d="M7071 8286 c3 -3 52 -11 110 -16 193 -20 324 -75 365 -152 60 -114
-80 -192 -386 -214 -141 -10 -87 -22 79 -17 121 3 165 11 299 55 75 25 105 64
105 135 0 74 -41 120 -148 167 l-90 40 -170 4 c-93 2 -167 1 -164 -2z"/>
<path d="M5370 8231 c-47 -9 -108 -25 -137 -35 -51 -17 -103 -55 -103 -76 0
-23 49 -58 111 -78 149 -49 473 -79 699 -63 l125 8 -197 2 c-108 0 -219 5
-245 10 -26 5 -86 14 -133 21 -47 6 -98 17 -115 25 -16 7 -43 17 -60 22 -32 9
-59 51 -50 76 8 18 36 32 155 73 106 37 87 43 -50 15z"/>
<path d="M4304 8077 c-167 -128 -300 -448 -358 -855 -2 -13 0 -20 4 -15 11 12
38 104 59 203 38 177 170 461 286 614 31 42 56 79 54 81 -2 2 -23 -11 -45 -28z"/>
<path d="M4286 7818 c-52 -70 -128 -257 -170 -426 -92 -363 -124 -799 -92
-1264 15 -224 39 -411 56 -439 12 -18 72 -1 66 19 -10 35 -25 130 -36 217 -50
429 -37 924 36 1335 35 194 118 484 163 569 17 31 6 26 -23 -11z"/>
<path d="M3937 6890 c-21 -68 -41 -171 -62 -315 -9 -60 -24 -164 -35 -230 -10
-66 -25 -181 -34 -255 -8 -74 -20 -176 -26 -226 -5 -50 -10 -111 -10 -137 l0
-47 63 0 62 0 0 358 c1 360 5 434 46 724 23 165 22 211 -4 128z"/>
<path d="M3707 6313 c-52 -103 -94 -269 -122 -486 -20 -157 -22 -147 25 -147
l40 0 0 129 c0 166 22 331 59 451 17 52 28 96 26 98 -2 2 -15 -18 -28 -45z"/>
<path d="M3140 4854 c-806 -23 -830 -33 -65 -28 374 2 715 4 757 4 67 0 79 3
88 20 11 20 8 20 -142 19 -84 -1 -371 -8 -638 -15z"/>
</g>
</svg>
